# xmcd
#
# Track frame offsets: 
#        150
#        11717
#        19822
#        30857
#        52606
#        67187
#        77857
#        91327
#        101679
#        118219
#        126112
#        140080
#        151977
#
# Disc length: 2193 seconds
#
# Revision: 0
# Processed by: cddbd v1.4PL0 Copyright (c) Steve Scherf et al.
# Submitted via: ExactAudioCopy v0.95a3
#
DISCID=a6088f0d
DTITLE=Larry McNeely - Rhapsody For Banjo
DYEAR=1976
DGENRE=Bluegrass
TTITLE0=Black Room
TTITLE1=Slipped Disc
TTITLE2=To Django
TTITLE3=Red Haired Boy -- Weave And Way
TTITLE4=Honeysuckle Rose
TTITLE5=Edson Breakaway
TTITLE6=Bluejazz
TTITLE7=Banjo Nova
TTITLE8=Space Circus
TTITLE9=Zubenelgenubi
TTITLE10=Limehouse Blues
TTITLE11=Sunstone
TTITLE12=Rhapsody No. 1
EXTD=
EXTT0=
EXTT1=
EXTT2=
EXTT3=
EXTT4=
EXTT5=
EXTT6=
EXTT7=
EXTT8=
EXTT9=
EXTT10=
EXTT11=
EXTT12=
PLAYORDER=
